<svg height="40" viewBox="0 0 108.85157 40" width="108.85157" xmlns="http://www.w3.org/2000/svg"><path d="m99.32227 0h-89.78759c-.3667 0-.729 0-1.09473.002-.30615.002-.60986.00781-.91895.0127a13.21476 13.21476 0 0 0 -2.0039.17671 6.66509 6.66509 0 0 0 -1.90088.627 6.43779 6.43779 0 0 0 -1.61865 1.17866 6.25844 6.25844 0 0 0 -1.17822 1.62109 6.60119 6.60119 0 0 0 -.625 1.90332 12.993 12.993 0 0 0 -.1792 2.002c-.00928.3066-.01026.61422-.01515.92086v23.11426c.00489.3105.00587.6113.01515.9219a12.99232 12.99232 0 0 0 .1792 2.0019 6.58756 6.58756 0 0 0 .625 1.9043 6.20778 6.20778 0 0 0 1.17822 1.6143 6.27445 6.27445 0 0 0 1.61865 1.1787 6.70082 6.70082 0 0 0 1.90088.6308 13.45514 13.45514 0 0 0 2.0039.1768c.30909.0068.6128.0107.91895.0107.36572.002.72805.002 1.09473.002h89.78759c.3594 0 .7246 0 1.084-.002.3047 0 .6172-.0039.9219-.0107a13.279 13.279 0 0 0 2-.1768 6.80432 6.80432 0 0 0 1.9082-.6308 6.27742 6.27742 0 0 0 1.6172-1.1787 6.39482 6.39482 0 0 0 1.1816-1.6143 6.60413 6.60413 0 0 0 .6191-1.9043 13.50643 13.50643 0 0 0 .1856-2.0019c.0039-.3106.0039-.6114.0039-.9219.0078-.3633.0078-.7246.0078-1.0938v-20.92867c0-.36621 0-.72949-.0078-1.09179 0-.30664 0-.61426-.0039-.9209a13.5071 13.5071 0 0 0 -.1856-2.002 6.6177 6.6177 0 0 0 -.6191-1.90332 6.46619 6.46619 0 0 0 -2.7988-2.7998 6.76754 6.76754 0 0 0 -1.9082-.627 13.04394 13.04394 0 0 0 -2-.17676c-.3047-.00488-.6172-.01074-.9219-.01269-.3594-.00187-.7246-.00187-1.084-.00187z" fill="#a6a6a6"/><path d="m8.44483 39.125c-.30468 0-.602-.0039-.90429-.0107a12.68714 12.68714 0 0 1 -1.86914-.1631 5.88381 5.88381 0 0 1 -1.65674-.5479 5.40573 5.40573 0 0 1 -1.397-1.0166 5.32082 5.32082 0 0 1 -1.02051-1.3965 5.72186 5.72186 0 0 1 -.543-1.6572 12.41351 12.41351 0 0 1 -.1665-1.875c-.00634-.2109-.01464-.9131-.01464-.9131v-23.10056s.00884-.69141.01469-.89454a12.37039 12.37039 0 0 1 .16553-1.87207 5.7555 5.7555 0 0 1 .54346-1.6621 5.37349 5.37349 0 0 1 1.01514-1.39795 5.56543 5.56543 0 0 1 1.40234-1.02247 5.82309 5.82309 0 0 1 1.65332-.54394 12.58589 12.58589 0 0 1 1.87551-.16406l.90232-.01221h91.956l.9131.0127a12.38493 12.38493 0 0 1 1.8584.16259 5.93833 5.93833 0 0 1 1.6709.54785 5.59374 5.59374 0 0 1 2.415 2.41993 5.76267 5.76267 0 0 1 .53528 1.64893 12.995 12.995 0 0 1 .1738 1.88721c.0029.2832.0029.5874.0029.89014.0079.375.0079.73193.0079 1.09179v20.92866c0 .3633 0 .7178-.0079 1.0752 0 .3252 0 .6231-.0039.9297a12.73126 12.73126 0 0 1 -.1709 1.8535 5.739 5.739 0 0 1 -.54 1.67 5.48029 5.48029 0 0 1 -1.0156 1.3857 5.4129 5.4129 0 0 1 -1.3994 1.0225 5.86168 5.86168 0 0 1 -1.668.5498 12.54218 12.54218 0 0 1 -1.8692.1631c-.2929.0068-.5996.0107-.8974.0107l-1.084.002z"/><g fill="#fff"><path d="m41.16742 16.55462h-4.05157l-.973 2.873h-1.71607l3.83759-10.62925h1.783l3.83759 10.62922h-1.74539zm-3.632-1.32573h3.21158l-1.58318-4.66261h-.0443z"/><path d="m52.1728 15.55322c0 2.40821-1.28895 3.95545-3.23407 3.95545a2.62719 2.62719 0 0 1 -2.4383-1.35582h-.03678v3.83842h-1.59071v-10.31327h1.53972v1.289h.02926a2.749 2.749 0 0 1 2.46756-1.37c1.96685-.00006 3.26332 1.5547 3.26332 3.95622zm-1.635 0c0-1.569-.81082-2.60046-2.04794-2.60046-1.21539 0-2.03289 1.05323-2.03289 2.60046 0 1.56145.8175 2.60715 2.03289 2.60715 1.23714 0 2.04793-1.02397 2.04793-2.60715z"/><path d="m60.70267 15.55322c0 2.40821-1.28937 3.95545-3.23449 3.95545a2.62719 2.62719 0 0 1 -2.4383-1.35582h-.03678v3.83842h-1.5907v-10.31327h1.53972v1.289h.02926a2.749 2.749 0 0 1 2.46756-1.37c1.96684-.00006 3.26373 1.5547 3.26373 3.95622zm-1.63543 0c0-1.569-.81082-2.60046-2.04794-2.60046-1.21539 0-2.03289 1.05323-2.03289 2.60046 0 1.56145.8175 2.60715 2.03289 2.60715 1.23713 0 2.04795-1.02397 2.04795-2.60715z"/><path d="m66.3391 16.466c.11786 1.05406 1.14183 1.74618 2.54112 1.74618 1.34077 0 2.30539-.69212 2.30539-1.64253 0-.825-.58178-1.319-1.95933-1.65758l-1.37755-.33185c-1.95181-.47144-2.85792-1.38424-2.85792-2.86544 0-1.834 1.59823-3.09364 3.86684-3.09364 2.24688 0 3.7866 1.25969 3.83842 3.09364h-1.60575c-.09613-1.06075-.973-1.701-2.2544-1.701s-2.15828.64782-2.15828 1.59071c0 .75147.56 1.19366 1.93008 1.53219l1.17109.28755c2.18085.51575 3.08612 1.39176 3.08612 2.94652 0 1.98859-1.58318 3.23407-4.10257 3.23407-2.35722 0-3.94876-1.21623-4.05158-3.13878z"/><path d="m76.29961 9.84407v1.834h1.47368v1.25969h-1.47368v4.27224c0 .6637.29507.973.94289.973a4.971 4.971 0 0 0 .52327-.03678v1.25217a4.36838 4.36838 0 0 1 -.88354.07356c-1.569 0-2.18085-.5893-2.18085-2.09224v-4.442h-1.12678v-1.25971h1.12678v-1.834z"/><path d="m78.6259 15.55322c0-2.4383 1.43607-3.97049 3.67542-3.97049 2.24688 0 3.67626 1.53219 3.67626 3.97049 0 2.445-1.42185 3.97049-3.67626 3.97049-2.25356.00001-3.67542-1.5255-3.67542-3.97049zm5.73089 0c0-1.67262-.76651-2.65981-2.05546-2.65981s-2.05546.99471-2.05546 2.65981c0 1.67931.76651 2.659 2.05546 2.659s2.05546-.97969 2.05546-2.659z"/><path d="m87.2891 11.678h1.51715v1.319h.03675a1.84835 1.84835 0 0 1 1.864-1.40012 2.4533 2.4533 0 0 1 .545.05935v1.48789a2.22372 2.22372 0 0 0 -.71469-.09613 1.6029 1.6029 0 0 0 -1.65758 1.783v4.59658h-1.59063z"/><path d="m98.5862 17.15145a3.11011 3.11011 0 0 1 -3.33689 2.37227c-2.2544 0-3.65369-1.51046-3.65369-3.93372 0-2.43078 1.40681-4.00727 3.58682-4.00727 2.14407 0 3.49236 1.47284 3.49236 3.82254v.545h-5.47342v.09613a2.01837 2.01837 0 0 0 2.08472 2.19506 1.75329 1.75329 0 0 0 1.78965-1.09zm-5.3773-2.31292h3.87437a1.86367 1.86367 0 0 0 -1.90082-1.96686 1.96188 1.96188 0 0 0 -1.97355 1.96686z"/><path d="m34.42873 24.04h7.46143v.78027h-3.54688v1.10352q.76245.353 1.53467.77832.772.4248 1.562.91211l-.45947.7168q-.813-.51855-1.46094-.91406-.64819-.39551-1.17627-.65723v4.6084h-.79053v-6.54782h-3.124z"/><path d="m43.95607 24.27441h1.562v-.62988h.772v.62988h1.44727v.7168h-1.44728v.61035h1.82422q-.01831-.44971-.03662-.93945-.019-.48926-.01855-1.02637h.76709q0 .54639.01611 1.03125t.03467.93457h2.03076v.72656h-1.99415q.03662.50537.09424.92285c.03809.2793.07275.52832.10352.749a1.65659 1.65659 0 0 1 .05518.22363c.01221.07129.02441.14453.03662.21777a8.07449 8.07449 0 0 0 .33985-.85937q.15161-.4541.27588-.97363l.70313.32129a9.7383 9.7383 0 0 1 -1.00635 2.57813c.02441.06055.05127.123.08057.18555q.04321.09375.08936.18164.28931.57422.45947.57422.115 0 .2666-1.208l.67529.3584q-.28931 1.67725-.85449 1.67676-.42773 0-.96973-.75391a2.1332 2.1332 0 0 1 -.188-.3584 5.12 5.12 0 0 1 -1.40186 1.2041l-.436-.62891a4.19187 4.19187 0 0 0 1.48828-1.40234q-.08276-.271-.16748-.55762-.085-.28711-.145-.59961a12.605 12.605 0 0 1 -.26172-1.85156h-4.6314v-.72656h1.99854v-.61035h-1.562zm3.78125 5.28809v.6895q-.30322.03662-.61328.06836c-.20654.02148-.416.04492-.627.06934v.95117h-.772v-.85449q-.43652.03662-.88721.06836c-.2998.02148-.605.0498-.91406.083l-.10107-.74414q.50977-.019.97852-.05273.46875-.03516.92383-.0625v-.62017h-1.5346l-.16113-.62988a5.21327 5.21327 0 0 0 .55615-.88672h-.80859v-.70312h1.11621a1.73325 1.73325 0 0 0 .09668-.26855q.03662-.13477.0918-.28711l.75342.13379c-.03027.085-.05469.16113-.07324.22754a.99246.99246 0 0 1 -.07812.19434h2.09033v.70313h-2.37062q-.12378.249-.25049.46t-.23682.40918h.80908v-.5567h.772v.55664h1.19434v.64746h-1.19436v.53711c.21094-.01758.42041-.03906.627-.06152q.30977-.03516.61323-.07129zm1.34619-5.459.5835-.39453a12.55594 12.55594 0 0 1 .979 1.23633l-.59277.42188q-.17944-.28418-.42041-.60352-.2417-.31932-.54931-.66014z"/><path d="m24.76888 20.30068a4.94881 4.94881 0 0 1 2.35656-4.15206 5.06566 5.06566 0 0 0 -3.99116-2.15768c-1.67924-.17626-3.30719 1.00483-4.1629 1.00483-.87227 0-2.18977-.98733-3.6085-.95814a5.31529 5.31529 0 0 0 -4.47292 2.72787c-1.934 3.34842-.49141 8.26947 1.3612 10.97608.9269 1.32535 2.01018 2.8058 3.42763 2.7533 1.38706-.05753 1.9051-.88448 3.5794-.88448 1.65876 0 2.14479.88448 3.591.8511 1.48838-.02416 2.42613-1.33124 3.32051-2.66914a10.962 10.962 0 0 0 1.51842-3.09251 4.78205 4.78205 0 0 1 -2.91924-4.39917z"/><path d="m22.03725 12.21089a4.87248 4.87248 0 0 0 1.11452-3.49062 4.95746 4.95746 0 0 0 -3.20758 1.65961 4.63634 4.63634 0 0 0 -1.14371 3.36139 4.09905 4.09905 0 0 0 3.23677-1.53038z"/></g></svg>